<?xml version="1.0" encoding="utf-8"?>
<!-- Generator: Adobe Illustrator 16.0.0, SVG Export Plug-In . SVG Version: 6.00 Build 0)  -->
<!DOCTYPE svg PUBLIC "-//W3C//DTD SVG 1.1//EN" "http://www.w3.org/Graphics/SVG/1.1/DTD/svg11.dtd">
<svg version="1.1" id="Layer_1" xmlns="http://www.w3.org/2000/svg" xmlns:xlink="http://www.w3.org/1999/xlink" x="0px" y="0px"
	 width="36px" height="36px" viewBox="0 0 36 36" enable-background="new 0 0 36 36" xml:space="preserve">
<g>
	<path fill-rule="evenodd" clip-rule="evenodd" fill="#191717" d="M18,0.932c-9.663,0-17.5,7.834-17.5,17.5
		c0,7.732,5.014,14.292,11.968,16.606c0.874,0.162,1.195-0.38,1.195-0.842c0-0.418-0.017-1.796-0.023-3.259
		c-4.868,1.059-5.896-2.064-5.896-2.064c-0.797-2.022-1.943-2.561-1.943-2.561c-1.589-1.086,0.119-1.063,0.119-1.063
		c1.758,0.123,2.683,1.803,2.683,1.803c1.561,2.676,4.094,1.902,5.093,1.455c0.157-1.131,0.61-1.903,1.111-2.34
		c-3.888-0.442-7.973-1.943-7.973-8.65c0-1.91,0.684-3.472,1.803-4.697c-0.182-0.441-0.78-2.221,0.169-4.631
		c0,0,1.47-0.47,4.813,1.794C15.016,9.595,16.514,9.4,18,9.394c1.486,0.006,2.985,0.201,4.384,0.589
		c3.341-2.264,4.808-1.794,4.808-1.794c0.952,2.411,0.354,4.19,0.172,4.631c1.122,1.226,1.801,2.787,1.801,4.697
		c0,6.722-4.094,8.203-7.99,8.635c0.628,0.544,1.187,1.608,1.187,3.241c0,2.342-0.02,4.226-0.02,4.803
		c0,0.466,0.314,1.012,1.202,0.84C30.492,32.719,35.5,26.161,35.5,18.432C35.5,8.766,27.665,0.932,18,0.932z"/>
	<path fill="#191717" d="M7.128,26.059c-0.038,0.087-0.176,0.113-0.3,0.054c-0.127-0.058-0.197-0.176-0.157-0.264
		c0.037-0.089,0.175-0.113,0.302-0.055C7.1,25.852,7.172,25.972,7.128,26.059L7.128,26.059z M6.912,25.898"/>
	<path fill="#191717" d="M7.837,26.849c-0.083,0.078-0.246,0.042-0.357-0.081c-0.114-0.121-0.136-0.284-0.052-0.363
		c0.087-0.077,0.245-0.041,0.359,0.081C7.901,26.608,7.925,26.771,7.837,26.849L7.837,26.849z M7.67,26.67"/>
	<path fill="#191717" d="M8.527,27.857c-0.107,0.073-0.283,0.004-0.391-0.151s-0.107-0.343,0.002-0.417
		c0.107-0.075,0.281-0.008,0.391,0.146C8.637,27.594,8.637,27.781,8.527,27.857L8.527,27.857z M8.527,27.857"/>
	<path fill="#191717" d="M9.473,28.83c-0.097,0.106-0.301,0.078-0.45-0.066c-0.153-0.142-0.195-0.342-0.099-0.447
		c0.097-0.106,0.302-0.076,0.452,0.067C9.528,28.524,9.574,28.726,9.473,28.83L9.473,28.83z M9.473,28.83"/>
	<path fill="#191717" d="M10.776,29.396c-0.042,0.137-0.239,0.199-0.438,0.14s-0.327-0.22-0.287-0.357
		c0.041-0.139,0.239-0.203,0.438-0.142C10.688,29.097,10.817,29.257,10.776,29.396L10.776,29.396z M10.776,29.396"/>
	<path fill="#191717" d="M12.208,29.501c0.005,0.144-0.163,0.264-0.371,0.267c-0.209,0.005-0.379-0.112-0.381-0.255
		c0-0.146,0.165-0.264,0.374-0.268C12.037,29.241,12.208,29.357,12.208,29.501L12.208,29.501z M12.208,29.501"/>
	<path fill="#191717" d="M13.541,29.274c0.025,0.141-0.119,0.285-0.326,0.324c-0.203,0.037-0.392-0.051-0.417-0.19
		c-0.025-0.145,0.122-0.288,0.325-0.326C13.33,29.047,13.515,29.131,13.541,29.274L13.541,29.274z M13.541,29.274"/>
</g>
</svg>
