<?xml version="1.0" encoding="utf-8"?>
<!-- Generator: Adobe Illustrator 16.0.0, SVG Export Plug-In . SVG Version: 6.00 Build 0)  -->
<!DOCTYPE svg PUBLIC "-//W3C//DTD SVG 1.1//EN" "http://www.w3.org/Graphics/SVG/1.1/DTD/svg11.dtd">
<svg version="1.1" id="Logo" xmlns="http://www.w3.org/2000/svg" xmlns:xlink="http://www.w3.org/1999/xlink" x="0px" y="0px"
	 width="36px" height="36px" viewBox="0 0 36 36" enable-background="new 0 0 36 36" xml:space="preserve">
<g>
	<path fill="#202020" d="M18,3.243c4.807,0,5.376,0.019,7.273,0.105c1.755,0.08,2.708,0.374,3.343,0.62
		c0.84,0.327,1.439,0.717,2.069,1.347s1.02,1.229,1.347,2.07c0.246,0.634,0.539,1.587,0.619,3.342
		c0.087,1.898,0.105,2.467,0.105,7.273s-0.019,5.375-0.105,7.273c-0.08,1.755-0.373,2.708-0.619,3.342
		c-0.327,0.84-0.717,1.44-1.347,2.07s-1.229,1.02-2.069,1.347c-0.635,0.246-1.588,0.54-3.343,0.62
		c-1.897,0.086-2.467,0.105-7.273,0.105s-5.376-0.019-7.273-0.105c-1.755-0.08-2.708-0.374-3.343-0.62
		c-0.84-0.327-1.439-0.717-2.069-1.347s-1.021-1.229-1.347-2.07c-0.246-0.634-0.539-1.587-0.619-3.342
		C3.262,23.375,3.243,22.806,3.243,18s0.019-5.375,0.105-7.273c0.08-1.755,0.373-2.708,0.619-3.342
		c0.326-0.84,0.717-1.44,1.347-2.07s1.229-1.02,2.069-1.347c0.635-0.246,1.588-0.54,3.343-0.62C12.624,3.262,13.193,3.243,18,3.243
		 M18,0c-4.889,0-5.502,0.021-7.421,0.108C8.663,0.196,7.354,0.5,6.209,0.945c-1.184,0.46-2.188,1.076-3.188,2.076
		C2.021,4.022,1.405,5.026,0.945,6.209C0.5,7.354,0.195,8.663,0.108,10.579C0.021,12.499,0,13.111,0,18s0.021,5.501,0.108,7.421
		c0.087,1.916,0.392,3.224,0.837,4.369c0.46,1.184,1.075,2.188,2.076,3.188c1,1,2.004,1.616,3.188,2.076
		c1.146,0.445,2.454,0.749,4.37,0.836C12.498,35.979,13.111,36,18,36s5.501-0.021,7.421-0.108c1.916-0.087,3.225-0.392,4.37-0.836
		c1.184-0.46,2.188-1.076,3.188-2.076c1.001-1.001,1.616-2.005,2.076-3.188c0.445-1.145,0.75-2.453,0.837-4.369
		C35.979,23.501,36,22.889,36,18s-0.021-5.501-0.108-7.421c-0.087-1.916-0.392-3.224-0.837-4.369
		c-0.46-1.184-1.075-2.188-2.076-3.188c-1-1-2.004-1.616-3.188-2.076c-1.146-0.445-2.454-0.749-4.37-0.836
		C23.501,0.021,22.889,0,18,0L18,0z"/>
	<path fill="#202020" d="M18,8.757c-5.104,0-9.243,4.138-9.243,9.243s4.139,9.243,9.243,9.243s9.243-4.138,9.243-9.243
		S23.104,8.757,18,8.757z M18,24c-3.313,0-6-2.687-6-6c0-3.314,2.687-6,6-6s6,2.686,6,6C24,21.313,21.313,24,18,24z"/>
	<circle fill="#202020" cx="27.608" cy="8.392" r="2.16"/>
</g>
</svg>
