<?xml version="1.0" encoding="utf-8"?>
<!-- Generator: Adobe Illustrator 16.0.0, SVG Export Plug-In . SVG Version: 6.00 Build 0)  -->
<!DOCTYPE svg PUBLIC "-//W3C//DTD SVG 1.1//EN" "http://www.w3.org/Graphics/SVG/1.1/DTD/svg11.dtd">
<svg version="1.1" id="Layer_1" xmlns="http://www.w3.org/2000/svg" xmlns:xlink="http://www.w3.org/1999/xlink" x="0px" y="0px"
	 width="36px" height="36px" viewBox="0 0 36 36" enable-background="new 0 0 36 36" xml:space="preserve">
<path fill="#017686" d="M30.677,30.674h-5.331v-8.35c0-1.998-0.04-4.557-2.774-4.557c-2.779,0-3.209,2.168-3.209,4.408v8.499H14.03
	V13.496h5.116v2.347h0.072c0.716-1.354,2.461-2.773,5.051-2.773c5.411,0,6.407,3.557,6.407,8.184V30.674z M8.008,11.149
	c-1.715,0-3.1-1.39-3.1-3.099c0-1.705,1.385-3.092,3.1-3.092c1.706,0,3.092,1.387,3.092,3.092C11.1,9.759,9.714,11.149,8.008,11.149
	 M10.677,30.674H5.336V13.496h5.341V30.674z M33.337,0H2.66C1.191,0,0,1.158,0,2.593v30.805C0,34.837,1.191,36,2.66,36h30.677
	C34.805,36,36,34.837,36,33.398V2.593C36,1.158,34.805,0,33.337,0"/>
</svg>
