<?xml version="1.0" encoding="utf-8"?>
<!-- Generator: Adobe Illustrator 16.0.0, SVG Export Plug-In . SVG Version: 6.00 Build 0)  -->
<!DOCTYPE svg PUBLIC "-//W3C//DTD SVG 1.1//EN" "http://www.w3.org/Graphics/SVG/1.1/DTD/svg11.dtd">
<svg version="1.1" xmlns="http://www.w3.org/2000/svg" xmlns:xlink="http://www.w3.org/1999/xlink" x="0px" y="0px" width="542px"
	 height="542px" viewBox="0 0 542 542" enable-background="new 0 0 542 542" xml:space="preserve">
<g id="Layer_1">
</g>
<g id="Layer_2">
	<g>
		<rect x="139" y="135" fill="#1C1C1C" stroke="#000000" stroke-miterlimit="10" width="44" height="158"/>
		<path fill="#1C1C1C" stroke="#000000" stroke-miterlimit="10" d="M271,0.5C121.607,0.5,0.5,121.607,0.5,271
			c0,149.392,121.107,270.5,270.5,270.5c149.392,0,270.5-121.108,270.5-270.5C541.5,121.607,420.392,0.5,271,0.5z M219,289.519
			C219,308.62,203.21,324,184.107,324H139v103h-36V104h81.107C203.21,104,219,120.028,219,139.133V289.519z M347,203h-66v131h56v30
			h-56v132h-35V173h101V203z"/>
	</g>
</g>
</svg>
